<svg xmlns="http://www.w3.org/2000/svg" width="123" height="123" viewBox="0 0 123 123">
  <g id="Group_1" data-name="Group 1" transform="translate(-174 -139)">
    <path id="Subtraction_1" data-name="Subtraction 1" d="M61.5,123a61.212,61.212,0,0,1-34.385-10.5A61.68,61.68,0,0,1,4.833,85.439,61.419,61.419,0,0,1,10.5,27.115,61.68,61.68,0,0,1,37.561,4.833,61.42,61.42,0,0,1,95.885,10.5a61.679,61.679,0,0,1,22.282,27.058,61.419,61.419,0,0,1-5.67,58.324,61.68,61.68,0,0,1-27.058,22.282A61.116,61.116,0,0,1,61.5,123ZM37,32A10.011,10.011,0,0,0,27,42V92a10.011,10.011,0,0,0,10,10H87A10.011,10.011,0,0,0,97,92V42A10.011,10.011,0,0,0,87,32H80.75V25.75a3.75,3.75,0,1,0-7.5,0V32H50.75V25.75a3.75,3.75,0,1,0-7.5,0V32ZM87,94.5H77V85.75H89.5V92A2.5,2.5,0,0,1,87,94.5Zm-17.5,0h-15V85.75h15V94.5ZM47,94.5H37A2.5,2.5,0,0,1,34.5,92V85.75H47V94.5ZM89.5,78.25H77v-10H89.5v10Zm-20,0h-15v-10h15v10Zm-22.5,0H34.5v-10H47v10Zm42.5-17.5H77V52H89.5v8.749Zm-20,0h-15V52h15v8.749Zm-22.5,0H34.5V52H47v8.749Z" transform="translate(174 139)" fill="#4fb15e"/>
  </g>
</svg>
