<svg xmlns="http://www.w3.org/2000/svg" width="123" height="123" viewBox="0 0 123 123">
  <path id="Subtraction_5" data-name="Subtraction 5" d="M61.5,123a61.212,61.212,0,0,1-34.385-10.5A61.68,61.68,0,0,1,4.833,85.439,61.419,61.419,0,0,1,10.5,27.115,61.68,61.68,0,0,1,37.561,4.833,61.42,61.42,0,0,1,95.885,10.5a61.679,61.679,0,0,1,22.282,27.058,61.419,61.419,0,0,1-5.67,58.324,61.68,61.68,0,0,1-27.058,22.282A61.116,61.116,0,0,1,61.5,123ZM26.125,36.625A5.131,5.131,0,0,0,21,41.75V85.313A12.809,12.809,0,0,0,33.812,98.125H92.75A10.261,10.261,0,0,0,103,87.875V36.625A10.261,10.261,0,0,0,92.75,26.375H46.625a10.261,10.261,0,0,0-10.25,10.249V85.313a2.563,2.563,0,0,1-5.126,0V41.75A5.131,5.131,0,0,0,26.125,36.625ZM90.187,87.875H74.813a2.563,2.563,0,0,1,0-5.126H90.187a2.563,2.563,0,1,1,0,5.126Zm-25.625,0H49.188a2.563,2.563,0,0,1,0-5.126H64.562a2.563,2.563,0,0,1,0,5.126ZM90.187,72.5H74.813a2.563,2.563,0,0,1,0-5.125H90.187a2.563,2.563,0,1,1,0,5.125Zm-25.625,0H49.188a2.563,2.563,0,0,1,0-5.125H64.562a2.563,2.563,0,0,1,0,5.125ZM88.907,57.125H50.468a3.834,3.834,0,0,1-3.843-3.844V40.469a3.835,3.835,0,0,1,3.843-3.844H88.907a3.836,3.836,0,0,1,3.844,3.844V53.281a3.835,3.835,0,0,1-3.844,3.844Z" fill="#4fb15e"/>
</svg>
