<svg xmlns="http://www.w3.org/2000/svg" width="123" height="123" viewBox="0 0 123 123">
  <path id="Subtraction_3" data-name="Subtraction 3" d="M61.5,123a61.212,61.212,0,0,1-34.385-10.5A61.68,61.68,0,0,1,4.833,85.439,61.419,61.419,0,0,1,10.5,27.115,61.68,61.68,0,0,1,37.561,4.833,61.42,61.42,0,0,1,95.885,10.5a61.679,61.679,0,0,1,22.282,27.058,61.419,61.419,0,0,1-5.67,58.324,61.68,61.68,0,0,1-27.058,22.282A61.116,61.116,0,0,1,61.5,123ZM36.25,51.75A10.262,10.262,0,0,0,26,62V92.75A10.261,10.261,0,0,0,36.25,103H87.5A10.261,10.261,0,0,0,97.75,92.75V62A10.262,10.262,0,0,0,87.5,51.75H84.938V44.062a23.063,23.063,0,1,0-46.125,0V51.75Zm38.437,0H49.063V44.062a12.812,12.812,0,1,1,25.625,0v7.687Z" fill="#4fb15e"/>
</svg>
