<svg xmlns="http://www.w3.org/2000/svg" width="123" height="123" viewBox="0 0 123 123">
  <path id="Subtraction_6" data-name="Subtraction 6" d="M61.5,123a61.212,61.212,0,0,1-34.385-10.5A61.68,61.68,0,0,1,4.833,85.439,61.419,61.419,0,0,1,10.5,27.115,61.68,61.68,0,0,1,37.561,4.833,61.42,61.42,0,0,1,95.885,10.5a61.679,61.679,0,0,1,22.282,27.058,61.419,61.419,0,0,1-5.67,58.324,61.68,61.68,0,0,1-27.058,22.282A61.116,61.116,0,0,1,61.5,123ZM90.329,92.4h0a29.591,29.591,0,0,0,3.4,1.536,24.6,24.6,0,0,0,8.368,1.685,2.162,2.162,0,0,0,1.267-3.908l-.027-.027a.41.41,0,0,0-.059-.044c-.025-.017-.056-.037-.089-.064l-.012-.01c-.132-.106-.332-.267-.567-.489a15.262,15.262,0,0,1-1.793-1.928A12.589,12.589,0,0,1,98.9,85.828a21.222,21.222,0,0,0,5.336-13.935A21.808,21.808,0,0,0,96.7,55.711a30.144,30.144,0,0,0-18.42-7.469c.054.692.08,1.395.08,2.089l.014.013A24.808,24.808,0,0,1,76.041,60.9a27.42,27.42,0,0,1-6.321,8.561,32.636,32.636,0,0,1-9.288,5.979A36.2,36.2,0,0,1,49.2,78.241a22.088,22.088,0,0,0,3.791,6.946A26.005,26.005,0,0,0,59.1,90.693a29.829,29.829,0,0,0,7.917,3.626,32.606,32.606,0,0,0,9.2,1.306A32.033,32.033,0,0,0,90.328,92.4ZM31.935,70.842h0a31.915,31.915,0,0,0,14.1,3.221A32.288,32.288,0,0,0,56.944,72.2a28.674,28.674,0,0,0,8.91-5.083,23.85,23.85,0,0,0,6.007-7.54,20.452,20.452,0,0,0,0-18.465,23.85,23.85,0,0,0-6.007-7.539,28.675,28.675,0,0,0-8.91-5.083,32.874,32.874,0,0,0-21.825,0,28.675,28.675,0,0,0-8.91,5.083A23.85,23.85,0,0,0,20.2,41.111,20.485,20.485,0,0,0,18,50.343a21.274,21.274,0,0,0,5.337,13.936,12.469,12.469,0,0,1-1.914,3.328,15.29,15.29,0,0,1-1.792,1.927c-.281.25-.459.4-.58.5a1.161,1.161,0,0,1-.148.108l-.027.027a2.138,2.138,0,0,0-.768,2.4,2.174,2.174,0,0,0,2.048,1.5,23.933,23.933,0,0,0,8.369-1.685,29.783,29.783,0,0,0,3.409-1.536Z" fill="#4fb15e"/>
</svg>
