<svg xmlns="http://www.w3.org/2000/svg" width="123" height="123" viewBox="0 0 123 123">
  <path id="Subtraction_4" data-name="Subtraction 4" d="M61.5,123a61.212,61.212,0,0,1-34.385-10.5A61.68,61.68,0,0,1,4.833,85.439,61.419,61.419,0,0,1,10.5,27.115,61.68,61.68,0,0,1,37.561,4.833,61.42,61.42,0,0,1,95.885,10.5a61.679,61.679,0,0,1,22.282,27.058,61.419,61.419,0,0,1-5.67,58.324,61.68,61.68,0,0,1-27.058,22.282A61.116,61.116,0,0,1,61.5,123ZM42.669,84.2h0L59.9,101.434a2.489,2.489,0,0,0,1.768.743,2.252,2.252,0,0,0,2.044-1.239,30.777,30.777,0,0,0,.561-27.018l2.482-2.483,14.3,14.318a3.824,3.824,0,0,0,2.721,1.129,3.783,3.783,0,0,0,2.709-1.129l15.375-15.375a3.823,3.823,0,0,0,1.129-2.731,3.784,3.784,0,0,0-1.129-2.7L87.545,50.631l8.808-8.808a5.132,5.132,0,0,0,0-7.255L88.666,26.88a5.133,5.133,0,0,0-7.255,0L72.6,35.69,58.316,21.371A3.824,3.824,0,0,0,55.6,20.242a3.783,3.783,0,0,0-2.709,1.129L37.512,36.746a3.823,3.823,0,0,0-1.129,2.731,3.784,3.784,0,0,0,1.129,2.7L51.83,56.493l-2.482,2.483a30.808,30.808,0,0,0-27.034.544,2.279,2.279,0,0,0-1.213,1.7,2.469,2.469,0,0,0,.716,2.113L39.049,80.581l-2.626,2.627a5.125,5.125,0,1,0,3.8,4.948,5.265,5.265,0,0,0-.176-1.329L42.668,84.2Zm41.112-6.6v-.015l-11.595-11.6,9.945-9.946,11.6,11.612L83.783,77.6ZM57.244,51.064h0L45.648,39.469l9.946-9.946,11.6,11.6-9.945,9.945Z" fill="#4fb15e"/>
</svg>
