<svg xmlns="http://www.w3.org/2000/svg" width="123" height="123" viewBox="0 0 123 123">
  <path id="Subtraction_2" data-name="Subtraction 2" d="M61.5,123a61.212,61.212,0,0,1-34.385-10.5A61.68,61.68,0,0,1,4.833,85.439,61.419,61.419,0,0,1,10.5,27.115,61.68,61.68,0,0,1,37.561,4.833,61.42,61.42,0,0,1,95.885,10.5a61.679,61.679,0,0,1,22.282,27.058,61.419,61.419,0,0,1-5.67,58.324,61.68,61.68,0,0,1-27.058,22.282A61.116,61.116,0,0,1,61.5,123ZM54.194,74.437A17.448,17.448,0,0,0,36.75,91.881a3.5,3.5,0,0,0,3.494,3.494H83.507A3.5,3.5,0,0,0,87,91.881,17.448,17.448,0,0,0,69.557,74.437ZM84.2,53.5a13.785,13.785,0,0,0-5.837,1.27,17.766,17.766,0,0,1,.249,2.918A16.714,16.714,0,0,1,72.946,70.25h28.017a2.79,2.79,0,0,0,2.787-2.787A13.979,13.979,0,0,0,89.788,53.5ZM61.875,45.125A12.563,12.563,0,1,0,74.437,57.687,12.576,12.576,0,0,0,61.875,45.125ZM33.962,53.5A13.979,13.979,0,0,0,20,67.463a2.79,2.79,0,0,0,2.787,2.787H50.8a16.79,16.79,0,0,1-4.134-5.56,16.886,16.886,0,0,1-1.284-9.921,13.974,13.974,0,0,0-5.836-1.27ZM87,28.375a10.466,10.466,0,1,0,7.4,3.065A10.4,10.4,0,0,0,87,28.375Zm-48.156,0a10.466,10.466,0,1,0,7.4,3.065A10.4,10.4,0,0,0,38.844,28.375Z" fill="#4fb15e"/>
</svg>
